# xmcd
#
# Track frame offsets: 
#        150
#        20065
#        42817
#        59087
#        78046
#        104162
#        119308
#        137062
#
# Disc length: 2250 seconds
#
# Revision: 2
# Processed by: cddbd v1.5.2PL0 Copyright (c) Steve Scherf et al.
# Submitted via: ExactAudioCopyFreeDBPlugin 1.0
#
DISCID=6d08c808
DTITLE=Black Ivory - Then And Now
DYEAR=1984
DGENRE=Soul
TTITLE0=You Are My Lover
TTITLE1=Words
TTITLE2=All The Right Moves
TTITLE3=Hold On Tight
TTITLE4=You And I
TTITLE5=Don't Turn Around
TTITLE6=Find The One Who Loves You
TTITLE7=Mainline
EXTD=
EXTT0=
EXTT1=
EXTT2=
EXTT3=
EXTT4=
EXTT5=
EXTT6=
EXTT7=
PLAYORDER=
